<svg width="20" height="20" viewBox="0 0 20 20" fill="none" xmlns="http://www.w3.org/2000/svg">
<rect x="3" y="18" width="14" height="2" fill="#FFA300"/>
<path fill-rule="evenodd" clip-rule="evenodd" d="M11.5508 15.1459C13.3566 12.7253 16 9.1821 16 6.19726C16 2.77461 13.3137 0 10 0C6.68629 0 4 2.77461 4 6.19726C4 9.1821 6.64337 12.7253 8.4492 15.1459C9.0001 15.8843 9.47305 16.5183 9.76923 17H10.2308C10.5269 16.5183 10.9999 15.8843 11.5508 15.1459ZM10 3C8.34315 3 7 4.34315 7 6C7 7.65685 8.34315 9 10 9C11.6569 9 13 7.65685 13 6C13 4.34315 11.6569 3 10 3Z" fill="#FFA300"/>
</svg>
